<svg width="191" height="135" viewBox="0 0 191 135" fill="none" xmlns="http://www.w3.org/2000/svg">
<rect y="35" width="47" height="100" rx="10" fill="white"/>
<rect width="47" height="30" rx="10" fill="white"/>
<path d="M176.056 1.49988C182.722 -2.29186 191 2.52291 191 10.1923V125C191 130.523 186.523 135 181 135H66C60.4772 135 56 130.523 56 125V10.1923C56 2.52291 64.2779 -2.29186 70.9443 1.49988L118.556 28.5809C121.621 30.3245 125.379 30.3245 128.444 28.5809L176.056 1.49988ZM108 95.9999C106.895 95.9999 106 96.8954 106 97.9999V108C106 109.104 106.895 110 108 110H118C119.105 110 120 109.104 120 108V97.9999C120 96.8954 119.105 95.9999 118 95.9999H108ZM154 66.9999C152.895 66.9999 152 67.8954 152 68.9999V78.9999C152 80.1044 152.895 80.9999 154 80.9999H164C165.105 80.9999 166 80.1044 166 78.9999V68.9999C166 67.8954 165.105 66.9999 164 66.9999H154ZM83 52.9999C81.8955 52.9999 81.0001 53.8954 81 54.9999V64.9999C81 66.1044 81.8954 66.9999 83 66.9999H93C94.1046 66.9999 95 66.1044 95 64.9999V54.9999C94.9999 53.8954 94.1045 52.9999 93 52.9999H83Z" fill="white"/>
</svg>
