<svg width="15" height="20" viewBox="0 0 15 20" fill="none" xmlns="http://www.w3.org/2000/svg">
<path fill-rule="evenodd" clip-rule="evenodd" d="M10.6272 14.1402L10.5072 14.4427C8.36067 15.1657 6.03932 15.1657 3.8928 14.4427L3.7728 14.1402C3.6588 13.8619 3.6012 13.7215 3.5016 13.5932C3.4032 13.4637 3.2304 13.333 2.8848 13.0729C1.67471 12.1592 0.780477 10.8847 0.328845 9.42992C-0.122786 7.97513 -0.108901 6.41391 0.368532 4.96753C0.845966 3.52115 1.76273 2.26299 2.98887 1.3714C4.21501 0.479801 5.68833 0 7.2 0C8.71167 0 10.185 0.479801 11.4111 1.3714C12.6373 2.26299 13.554 3.52115 14.0315 4.96753C14.5089 6.41391 14.5228 7.97513 14.0712 9.42992C13.6195 10.8847 12.7253 12.1592 11.5152 13.0729C11.1696 13.333 10.9968 13.4637 10.8984 13.5932C10.8 13.7227 10.7424 13.8607 10.6272 14.1402ZM4.62 17.1413C4.724 17.7802 4.7832 18.4248 4.7976 19.075C4.79881 19.1609 4.82326 19.2449 4.8683 19.3178C4.91334 19.3908 4.97727 19.4499 5.0532 19.4889C5.71975 19.825 6.45476 20 7.2 20C7.94524 20 8.68025 19.825 9.3468 19.4889C9.42273 19.4499 9.48666 19.3908 9.5317 19.3178C9.57674 19.2449 9.60119 19.1609 9.6024 19.075C9.6168 18.4248 9.676 17.7802 9.78 17.1413C8.07772 17.4934 6.32228 17.4934 4.62 17.1413Z" fill="currentColor"/>
</svg>
