<svg width="16" height="23" viewBox="0 0 16 23" fill="none" xmlns="http://www.w3.org/2000/svg">
<path d="M7.99966 22.4C6.39655 22.3999 4.83046 21.9293 3.50443 21.0494C2.17841 20.1695 1.15361 18.9208 0.562912 17.4653C-0.0277854 16.0097 -0.157137 14.4143 0.191629 12.8861C0.540394 11.3578 1.35119 9.96714 2.51889 8.89436C3.95042 7.57849 7.4663 5.2093 6.93295 0C13.3332 4.16744 16.5334 8.33488 10.1331 14.586C11.1998 14.586 12.7999 14.586 15.4666 12.0127C15.7547 12.818 16 13.6838 16 14.586C16 16.6584 15.1571 18.6459 13.6568 20.1113C12.1564 21.5767 10.1215 22.4 7.99966 22.4Z" fill="currentColor"/>
</svg>
