<svg width="20" height="21" viewBox="0 0 20 21" fill="none" xmlns="http://www.w3.org/2000/svg">
<path d="M18.5 0.280148C18.2857 0.132892 18.0386 0.0403218 17.7802 0.010509C17.5219 -0.0193038 17.2602 0.0145465 17.018 0.109108C15.615 0.655237 12.782 1.57145 9.6 1.57145C6.418 1.57145 3.584 0.655237 2.179 0.109108C1.93658 0.0149838 1.67489 -0.0186228 1.41656 0.0111977C1.15824 0.0410182 0.91107 0.133367 0.696462 0.280249C0.481854 0.427131 0.306273 0.624119 0.184917 0.85416C0.0635623 1.0842 9.14308e-05 1.34036 0 1.60046V7.17878C0 10.7636 0.965 14.1454 2.718 16.699C4.534 19.3457 6.978 20.8 9.6 20.8C12.222 20.8 14.666 19.3427 16.482 16.699C18.235 14.1474 19.2 10.7656 19.2 7.18078V1.60046C19.1995 1.34003 19.1355 1.08364 19.0135 0.853557C18.8916 0.623473 18.7153 0.426642 18.5 0.280148ZM4.6 10.1355C4.52994 10.2143 4.44505 10.2785 4.35017 10.3245C4.25529 10.3705 4.15228 10.3974 4.04702 10.4035C3.83445 10.416 3.62563 10.3435 3.4665 10.202C3.30737 10.0605 3.21097 9.86151 3.19849 9.64889C3.18602 9.43626 3.25851 9.22739 3.4 9.06823C3.975 8.43008 5.018 8.00197 6 8.00197C6.982 8.00197 8.025 8.43008 8.6 9.06823C8.67006 9.14704 8.72392 9.23888 8.75849 9.33851C8.79306 9.43814 8.80768 9.54361 8.80151 9.64889C8.79533 9.75417 8.76848 9.8572 8.7225 9.9521C8.67652 10.047 8.61229 10.1319 8.5335 10.202C8.45471 10.2721 8.36289 10.3259 8.26328 10.3605C8.16367 10.3951 8.05823 10.4097 7.95298 10.4035C7.84772 10.3974 7.74471 10.3705 7.64983 10.3245C7.55495 10.2785 7.47006 10.2143 7.4 10.1355C7.132 9.83541 6.515 9.60235 6 9.60235C5.485 9.60235 4.864 9.83641 4.6 10.1355ZM13.649 14.9226C13.1524 15.5119 12.5331 15.9856 11.8345 16.3106C11.1358 16.6356 10.3745 16.8039 9.604 16.8039C8.83347 16.8039 8.07224 16.6356 7.37354 16.3106C6.67485 15.9856 6.05557 15.5119 5.559 14.9226C5.48323 14.8441 5.4243 14.751 5.38584 14.6489C5.34738 14.5468 5.33019 14.4379 5.33535 14.3289C5.3405 14.2199 5.36788 14.1132 5.41581 14.0152C5.46373 13.9172 5.53119 13.83 5.61403 13.759C5.69687 13.688 5.79335 13.6348 5.89753 13.6024C6.00171 13.5701 6.1114 13.5595 6.21986 13.5711C6.32831 13.5828 6.43324 13.6165 6.52819 13.6702C6.62314 13.7239 6.70611 13.7964 6.772 13.8834C7.11825 14.2968 7.5509 14.6293 8.03951 14.8575C8.52811 15.0857 9.06078 15.2039 9.6 15.2039C10.1392 15.2039 10.6719 15.0857 11.1605 14.8575C11.6491 14.6293 12.0818 14.2968 12.428 13.8834C12.5658 13.7219 12.762 13.6219 12.9736 13.6052C13.1851 13.5885 13.3946 13.6565 13.556 13.7943C13.7174 13.9322 13.8174 14.1284 13.8341 14.34C13.8508 14.5516 13.7828 14.7612 13.645 14.9226H13.649ZM15.734 10.2025C15.6557 10.2726 15.5643 10.3266 15.4651 10.3614C15.366 10.3961 15.2609 10.411 15.1559 10.4052C15.051 10.3993 14.9482 10.3729 14.8535 10.3273C14.7588 10.2817 14.674 10.2179 14.604 10.1395C14.336 9.83941 13.719 9.60635 13.204 9.60635C12.689 9.60635 12.068 9.84041 11.804 10.1395C11.7337 10.2186 11.6485 10.283 11.5532 10.3291C11.458 10.3753 11.3546 10.4022 11.249 10.4084C11.1434 10.4146 11.0376 10.3999 10.9376 10.3651C10.8377 10.3304 10.7456 10.2763 10.6665 10.206C10.5874 10.1357 10.523 10.0504 10.4769 9.95518C10.4308 9.85994 10.4038 9.75654 10.3977 9.65089C10.3915 9.54523 10.4062 9.4394 10.4409 9.33943C10.4756 9.23945 10.5297 9.1473 10.6 9.06823C11.171 8.43008 12.214 8.00197 13.2 8.00197C14.186 8.00197 15.225 8.43008 15.8 9.06823C15.8705 9.14684 15.9248 9.23865 15.9597 9.33835C15.9945 9.43805 16.0093 9.54366 16.0032 9.64911C15.9971 9.75456 15.9701 9.85775 15.9239 9.95272C15.8777 10.0477 15.8132 10.1326 15.734 10.2025Z" fill="currentColor"/>
</svg>
