<svg width="20" height="17" viewBox="0 0 20 17" fill="none" xmlns="http://www.w3.org/2000/svg">
<path d="M1.72373 16.8C1.23236 16.8 0.8224 16.6383 0.493867 16.3149C0.165333 15.9915 0.000711111 15.5876 0 15.1032V4.8468C0 4.3631 0.164622 3.95955 0.493867 3.63615C0.823111 3.31275 1.23271 3.1507 1.72267 3.15H6.4V1.69575C6.4 1.21275 6.56462 0.809202 6.89387 0.485102C7.22311 0.161002 7.63307 -0.000697737 8.12373 2.26293e-06H11.0773C11.568 2.26293e-06 11.978 0.161702 12.3072 0.485102C12.6364 0.808502 12.8007 1.21205 12.8 1.69575V3.15H17.4773C17.968 3.15 18.3776 3.31205 18.7061 3.63615C19.0347 3.96025 19.1993 4.3638 19.2 4.8468V15.1042C19.2 15.5872 19.0354 15.9908 18.7061 16.3149C18.3769 16.639 17.9673 16.8007 17.4773 16.8H1.72373ZM7.46667 3.15H11.7333V1.69575C11.7333 1.53475 11.6651 1.3867 11.5285 1.2516C11.392 1.1165 11.2416 1.0493 11.0773 1.05H8.12267C7.95911 1.05 7.80871 1.1172 7.67147 1.2516C7.53422 1.386 7.46596 1.53405 7.46667 1.69575V3.15Z" fill="currentColor"/>
</svg>
